<svg width="145" height="55" fill="none" xmlns="http://www.w3.org/2000/svg"><rect width="144.81" height="55" rx="27.5" fill="#545454"/><path d="M22 23.29l5.612-5.748h7.193l-8.446 8.514L22 30.448V23.29z" fill="#4CA4DA"/><path d="M33.845 33.565l-7.486-7.509L22 30.448l7.396 7.532 4.45-4.415z" fill="#3578B4"/><path d="M42.585 24.96v7.487L37.22 37.98h-7.825l13.189-13.02z" fill="#4CA4DA"/><path d="M57.264 35.412c-1.181 0-2.285-.2-3.313-.598a8.348 8.348 0 01-2.69-1.725c-.752-.736-1.35-1.626-1.795-2.668-.444-1.043-.667-2.2-.667-3.474 0-1.272.223-2.43.667-3.473.46-1.058 1.074-1.955 1.84-2.691a8.218 8.218 0 012.669-1.748 8.596 8.596 0 013.243-.621c1.226 0 2.284.176 3.174.529.89.353 1.64.805 2.254 1.357.613.537 1.089 1.127 1.426 1.771.353.644.598 1.257.736 1.84l-3.427 1.081a3.94 3.94 0 00-.368-.943 3.392 3.392 0 00-.736-.989c-.322-.322-.736-.583-1.242-.782-.49-.215-1.097-.322-1.817-.322-.552 0-1.104.1-1.656.3a4.309 4.309 0 00-1.495.92c-.445.398-.806.912-1.082 1.54-.276.629-.414 1.373-.414 2.231 0 .767.13 1.45.391 2.047a4.677 4.677 0 001.035 1.519c.445.414.944.728 1.496.943a4.963 4.963 0 001.77.322c.706 0 1.312-.1 1.818-.3a4.439 4.439 0 001.265-.781 3.93 3.93 0 00.782-1.012c.2-.353.337-.675.414-.966l3.473.988c-.138.568-.383 1.181-.736 1.84-.337.66-.82 1.281-1.449 1.864-.613.567-1.38 1.042-2.3 1.426-.92.383-2.009.575-3.266.575zm10.246-.345V18.759h3.68v16.308h-3.68zm14.525-12.835v12.835H78.4V22.232h-5.014V18.76h13.686v3.473h-5.037zm15.005 0v12.835h-3.635V22.232h-5.014V18.76h13.686v3.473H97.04zm7.241 12.835V18.759h3.68v16.308h-3.68zm14.731.345a9.08 9.08 0 01-3.312-.598 8.353 8.353 0 01-2.691-1.725c-.751-.736-1.349-1.626-1.794-2.668-.445-1.043-.667-2.2-.667-3.474 0-1.272.222-2.43.667-3.473.46-1.058 1.073-1.955 1.84-2.691a8.22 8.22 0 012.668-1.748 8.6 8.6 0 013.243-.621c1.227 0 2.285.176 3.175.529.889.353 1.64.805 2.254 1.357a6.169 6.169 0 011.426 1.771c.353.644.598 1.257.736 1.84l-3.427 1.081a3.97 3.97 0 00-.368-.943 3.398 3.398 0 00-.736-.989c-.322-.322-.736-.583-1.242-.782-.491-.215-1.097-.322-1.818-.322-.552 0-1.104.1-1.656.3a4.309 4.309 0 00-1.495.92c-.444.398-.805.912-1.081 1.54-.276.629-.414 1.373-.414 2.231 0 .767.131 1.45.391 2.047a4.685 4.685 0 001.035 1.519c.445.414.943.728 1.495.943a4.966 4.966 0 001.771.322c.706 0 1.312-.1 1.818-.3a4.447 4.447 0 001.265-.781 3.92 3.92 0 00.782-1.012 4.18 4.18 0 00.414-.966l3.473.988c-.138.568-.383 1.181-.736 1.84-.337.66-.821 1.281-1.449 1.864-.614.567-1.38 1.042-2.3 1.426-.92.383-2.009.575-3.267.575z" fill="#fff"/></svg>