<svg width="481" height="489" fill="none" xmlns="http://www.w3.org/2000/svg"><circle cx="245.453" cy="243.453" r="100.059" transform="rotate(-102.582 245.453 243.453)" fill="url(#paint0_linear)"/><circle cx="236.599" cy="412.095" r="40.765" transform="rotate(-102.582 236.599 412.095)" fill="url(#paint1_linear)"/><circle cx="345.953" cy="389.841" r="40.765" transform="rotate(-102.582 345.953 389.841)" fill="url(#paint2_linear)"/><circle cx="398.953" cy="286.841" r="40.765" transform="rotate(-102.582 398.953 286.841)" fill="url(#paint3_linear)"/><circle cx="387.953" cy="175.841" r="40.765" transform="rotate(-102.582 387.953 175.841)" fill="url(#paint4_linear)"/><circle cx="311.666" cy="87.666" r="40.765" transform="rotate(-102.582 311.666 87.666)" fill="url(#paint5_linear)"/><circle cx="194.666" cy="85.666" r="40.765" transform="rotate(-102.582 194.666 85.666)" fill="url(#paint6_linear)"/><circle cx="103.666" cy="162.666" r="40.765" transform="rotate(-102.582 103.666 162.666)" fill="url(#paint7_linear)"/><circle cx="134.892" cy="371.511" r="40.765" transform="rotate(-102.582 134.892 371.511)" fill="url(#paint8_linear)"/><circle cx="85.071" cy="279.857" r="40.765" transform="rotate(-102.582 85.07 279.857)" fill="url(#paint9_linear)"/><defs><linearGradient id="paint0_linear" x1="145.394" y1="226.406" x2="245.453" y2="343.512" gradientUnits="userSpaceOnUse"><stop stop-color="#747474"/><stop offset="1" stop-color="#323232"/></linearGradient><linearGradient id="paint1_linear" x1="195.834" y1="405.15" x2="236.599" y2="452.86" gradientUnits="userSpaceOnUse"><stop stop-color="#747474"/><stop offset="1" stop-color="#323232"/></linearGradient><linearGradient id="paint2_linear" x1="305.188" y1="382.896" x2="345.953" y2="430.605" gradientUnits="userSpaceOnUse"><stop stop-color="#747474"/><stop offset="1" stop-color="#323232"/></linearGradient><linearGradient id="paint3_linear" x1="358.188" y1="279.896" x2="398.953" y2="327.606" gradientUnits="userSpaceOnUse"><stop stop-color="#747474"/><stop offset="1" stop-color="#323232"/></linearGradient><linearGradient id="paint4_linear" x1="347.188" y1="168.896" x2="387.953" y2="216.606" gradientUnits="userSpaceOnUse"><stop stop-color="#747474"/><stop offset="1" stop-color="#323232"/></linearGradient><linearGradient id="paint5_linear" x1="270.901" y1="80.721" x2="311.666" y2="128.431" gradientUnits="userSpaceOnUse"><stop stop-color="#747474"/><stop offset="1" stop-color="#323232"/></linearGradient><linearGradient id="paint6_linear" x1="153.901" y1="78.721" x2="194.666" y2="126.431" gradientUnits="userSpaceOnUse"><stop stop-color="#747474"/><stop offset="1" stop-color="#323232"/></linearGradient><linearGradient id="paint7_linear" x1="62.901" y1="155.721" x2="103.666" y2="203.431" gradientUnits="userSpaceOnUse"><stop stop-color="#747474"/><stop offset="1" stop-color="#323232"/></linearGradient><linearGradient id="paint8_linear" x1="94.127" y1="364.566" x2="134.892" y2="412.276" gradientUnits="userSpaceOnUse"><stop stop-color="#747474"/><stop offset="1" stop-color="#323232"/></linearGradient><linearGradient id="paint9_linear" x1="44.306" y1="272.911" x2="85.071" y2="320.621" gradientUnits="userSpaceOnUse"><stop stop-color="#747474"/><stop offset="1" stop-color="#323232"/></linearGradient></defs></svg>