<svg width="145" height="55" viewBox="0 0 145 55" fill="none" xmlns="http://www.w3.org/2000/svg">
<rect width="144.81" height="55" rx="27.5" fill="#545454"/>
<path d="M22 23.2895L27.612 17.542H34.8049L26.3586 26.056L22 30.4485V23.2895Z" fill="#4CA4DA"/>
<path d="M33.8451 33.565L26.3586 26.056L22 30.4485L29.3961 37.9801L33.8451 33.565Z" fill="#3578B4"/>
<path d="M42.5849 24.9607V32.4471L37.2213 37.9801H29.3961L42.5849 24.9607Z" fill="#4CA4DA"/>
<path d="M57.2637 35.4119C56.083 35.4119 54.9789 35.2125 53.9515 34.8138C52.9241 34.3998 52.0271 33.8248 51.2603 33.0887C50.509 32.3527 49.9109 31.4633 49.4662 30.4206C49.0215 29.3778 48.7992 28.2201 48.7992 26.9474C48.7992 25.6746 49.0215 24.5169 49.4662 23.4741C49.9263 22.4161 50.5396 21.519 51.3063 20.783C52.0731 20.0316 52.9624 19.4489 53.9745 19.0349C55.0019 18.6209 56.083 18.4138 57.2177 18.4138C58.4444 18.4138 59.5025 18.5902 60.3919 18.9429C61.2813 19.2956 62.0326 19.7479 62.646 20.3C63.2594 20.8367 63.7347 21.427 64.0721 22.0711C64.4248 22.7151 64.6701 23.3285 64.8081 23.9112L61.3809 24.9922C61.3196 24.7162 61.1969 24.4019 61.0129 24.0492C60.8442 23.6965 60.5989 23.3668 60.2769 23.0601C59.9549 22.7381 59.5408 22.4774 59.0348 22.2781C58.5441 22.0634 57.9384 21.9561 57.2177 21.9561C56.6657 21.9561 56.1136 22.0557 55.5616 22.2551C55.0096 22.4544 54.5112 22.7611 54.0665 23.1751C53.6218 23.5738 53.2615 24.0875 52.9854 24.7162C52.7094 25.3449 52.5714 26.0886 52.5714 26.9474C52.5714 27.7141 52.7018 28.3964 52.9624 28.9945C53.2231 29.5925 53.5681 30.0985 53.9975 30.5126C54.4422 30.9266 54.9406 31.2409 55.4926 31.4556C56.06 31.6703 56.6503 31.7776 57.2637 31.7776C57.9691 31.7776 58.5748 31.678 59.0808 31.4786C59.5868 31.2639 60.0085 31.0033 60.3459 30.6966C60.6832 30.3746 60.9439 30.0372 61.1279 29.6845C61.3273 29.3318 61.4653 29.0098 61.5419 28.7185L65.0152 29.7075C64.8771 30.2749 64.6318 30.8883 64.2791 31.5476C63.9418 32.207 63.4587 32.828 62.83 33.4107C62.2167 33.9781 61.4499 34.4535 60.5299 34.8368C59.6098 35.2202 58.5211 35.4119 57.2637 35.4119Z" fill="white"/>
<path d="M67.5099 35.0668V18.7589H71.1901V35.0668H67.5099Z" fill="white"/>
<path d="M82.0347 22.2321V35.0668H78.4005V22.2321H73.3862V18.7589H87.072V22.2321H82.0347Z" fill="white"/>
<path d="M97.0395 22.2321V35.0668H93.4053V22.2321H88.391V18.7589H102.077V22.2321H97.0395Z" fill="white"/>
<path d="M104.281 35.0668V18.7589H107.961V35.0668H104.281Z" fill="white"/>
<path d="M119.012 35.4119C117.832 35.4119 116.728 35.2125 115.7 34.8138C114.673 34.3998 113.776 33.8248 113.009 33.0887C112.258 32.3527 111.66 31.4633 111.215 30.4206C110.77 29.3778 110.548 28.2201 110.548 26.9474C110.548 25.6746 110.77 24.5169 111.215 23.4741C111.675 22.4161 112.288 21.519 113.055 20.783C113.822 20.0316 114.711 19.4489 115.723 19.0349C116.751 18.6209 117.832 18.4138 118.966 18.4138C120.193 18.4138 121.251 18.5902 122.141 18.9429C123.03 19.2956 123.781 19.7479 124.395 20.3C125.008 20.8367 125.483 21.427 125.821 22.0711C126.174 22.7151 126.419 23.3285 126.557 23.9112L123.13 24.9922C123.068 24.7162 122.946 24.4019 122.762 24.0492C122.593 23.6965 122.348 23.3668 122.026 23.0601C121.704 22.7381 121.29 22.4774 120.784 22.2781C120.293 22.0634 119.687 21.9561 118.966 21.9561C118.414 21.9561 117.862 22.0557 117.31 22.2551C116.758 22.4544 116.26 22.7611 115.815 23.1751C115.371 23.5738 115.01 24.0875 114.734 24.7162C114.458 25.3449 114.32 26.0886 114.32 26.9474C114.32 27.7141 114.451 28.3964 114.711 28.9945C114.972 29.5925 115.317 30.0985 115.746 30.5126C116.191 30.9266 116.689 31.2409 117.241 31.4556C117.809 31.6703 118.399 31.7776 119.012 31.7776C119.718 31.7776 120.324 31.678 120.83 31.4786C121.336 31.2639 121.757 31.0033 122.095 30.6966C122.432 30.3746 122.693 30.0372 122.877 29.6845C123.076 29.3318 123.214 29.0098 123.291 28.7185L126.764 29.7075C126.626 30.2749 126.381 30.8883 126.028 31.5476C125.691 32.207 125.207 32.828 124.579 33.4107C123.965 33.9781 123.199 34.4535 122.279 34.8368C121.359 35.2202 120.27 35.4119 119.012 35.4119Z" fill="white"/>
</svg>
