<?xml version="1.0" encoding="UTF-8"?>
<svg width="231px" height="60px" viewBox="0 0 231 60" version="1.1" xmlns="http://www.w3.org/2000/svg" xmlns:xlink="http://www.w3.org/1999/xlink">
    <!-- Generator: Sketch 61.2 (89653) - https://sketch.com -->
    <title>Calque_1</title>
    <desc>Created with Sketch.</desc>
    <g id="Blog" stroke="none" stroke-width="1" fill="none" fill-rule="evenodd">
        <g id="vf-og-main" transform="translate(-55.000000, -171.000000)" fill="#000000">
            <g id="Calque_1" transform="translate(55.000000, 171.000000)">
                <path d="M220.643232,15.6086085 C220.200872,18.3495708 221.515051,20.8299292 223.537008,21.8926759 C222.123297,29.4594324 216.444493,41.5618069 213.248437,41.5618069 C210.052382,41.5618069 212.51117,30.333657 215.994759,16.9800138 C216.732027,14.1207631 209.234015,14.7621076 207.755793,17.2979137 C205.219592,30.8567132 199.621887,41.2383623 196.143827,41.2383623 C194.768823,41.2383623 194.558701,39.5435123 194.558701,38.0593634 C194.558701,32.0229622 197.834013,19.9464633 198.256099,17.4032642 C198.681871,14.9062715 195.220399,15.4533551 192.953301,16.5641564 C192.247367,16.9430487 186.964844,19.5915983 184.395466,20.8151432 C182.828773,15.0042291 176.322385,15.7620137 175.015578,20.1627091 C174.066346,23.3361631 176.432975,25.3803333 178.834625,25.8072802 C178.709289,32.8454357 174.571375,41.772508 169.838116,41.772508 C163.923386,41.772508 166.669708,22.8112587 174.276467,18.1499593 C173.852539,15.713959 170.684131,15.3960591 167.725844,16.6713552 C162.058099,19.0981142 158.535802,28.2432805 159.038988,35.839609 C156.827184,39.2884531 154.615381,41.4583046 153.253279,41.4583046 C152.619229,41.4583046 151.880118,40.8243531 151.880118,39.2403985 C151.880118,34.7916484 154.091921,22.3972495 155.365551,14.1355492 C156.211566,8.20265021 155.15543,1 147.126585,1 C141.499389,1 138.360472,6.39136019 136.080472,14.7713489 L132.65402,14.7713489 C131.179485,14.7713489 130.329784,18.5861475 131.916753,18.691498 C132.429154,18.7377044 133.658547,18.7432492 135.109122,18.7358561 C134.692565,20.5970491 134.301814,22.567289 133.923964,24.624397 C133.72613,25.6791346 133.53567,26.7677568 133.352581,27.8902638 C130.477237,33.9211202 123.753356,42.2086962 117.761213,42.2086962 C114.983557,42.2086962 114.015893,38.8393271 114.185465,34.6696636 C130.475394,35.3960278 135.479599,14.880396 120.929621,14.9838983 C112.266726,15.0411942 106.90679,24.2066913 106.263523,32.6957271 C103.668341,37.0187958 99.3497957,42.3066537 95.3648639,42.3066537 C86.913933,42.3066537 92.6185418,19.1073554 98.3139346,19.1073554 C100.743232,19.1073554 100.216085,23.0275045 98.7360204,25.6760541 C99.2650099,29.065754 104.652594,29.3836539 105.92438,23.6633043 C106.873612,19.3199048 104.234194,15.0818558 98.6346461,15.0818558 C89.3247984,15.0818558 83.4745793,25.4912286 83.4211274,34.3942735 C81.6350964,38.2996366 79.3127032,40.3992544 77.6133012,40.3992544 C76.2401401,40.3992544 76.0281757,38.8116033 77.7183618,29.4945492 C78.1404476,27.1638995 78.5625333,24.5153499 78.9864622,21.7614498 C79.6131398,17.7766117 77.9616602,15.4552033 74.5481108,15.4071487 C74.5481108,15.4071487 74.1536726,15.4071487 74.0154349,15.4219347 C71.6322171,15.5550091 68.4472207,16.5789424 65.0779074,18.9336194 C63.0504212,14.1725143 57.2849879,15.1169726 56.0629667,19.3199048 C55.1137346,22.646764 57.4803639,24.733444 59.8820133,25.1714805 C59.7456188,32.4295783 55.6113903,41.670854 50.8855044,41.670854 C44.9707744,41.670854 47.7170965,22.0793497 55.3220127,17.3071549 C54.899927,14.7639559 51.7315191,14.446056 48.7732325,15.7176555 C38.5270548,20.0610551 35.3568038,46.8607543 49.7243078,46.8607543 C61.1169367,46.8607543 65.5552882,30.6571017 65.7746253,23.4969613 C67.6177945,22.1218595 69.6655555,21.0406303 70.8101636,21.0129065 L70.8525565,21.0129065 C71.3797029,21.0129065 71.5898242,21.2254558 71.4847635,21.8594073 C70.8488702,26.7314078 69.1660567,34.9931082 69.1660567,39.4418583 C69.1660567,43.9978072 70.4341571,46.8570578 74.343519,46.8570578 C78.0151121,46.8570578 81.6369396,43.5930393 84.1123158,39.4640373 C85.4025343,43.7408997 88.5709422,46.8570578 93.993546,46.8570578 C99.3663842,46.8570578 103.64991,42.5413821 106.593451,38.3550843 C107.61641,43.1975127 110.648423,46.8570578 116.07287,46.8570578 C123.583785,46.8570578 129.093017,40.8409874 132.270641,35.2352296 C132.075265,36.7138337 131.887262,38.2312512 131.706631,39.7597582 C130.650495,48.3412067 129.806324,51.8362571 128.43132,54.9154502 C127.867168,56.1858075 127.232746,57.4235992 126.531012,58.6230499 C126.002023,59.5767496 126.636073,60 127.482087,60 C129.382395,60 132.445742,58.8355993 134.347893,55.6566005 C136.14314,52.6993923 137.94023,49.7255498 139.840537,32.6698515 C140.26078,29.0084581 140.830319,23.726145 141.650529,18.6878015 L143.749899,18.6878015 C145.65205,18.6878015 147.447296,15.0855523 145.224434,14.8748512 C144.833682,14.8378861 143.759115,14.815707 142.345404,14.7990727 C143.545307,8.80333312 145.180198,3.96275296 147.44361,3.96275296 C149.555882,3.96275296 149.977968,7.24710231 149.028736,12.5442015 C147.44361,20.8059019 145.965388,31.1875509 145.331338,37.1259946 C144.59407,44.1160955 146.91462,46.8699956 150.823982,46.8699956 C153.903918,46.8699956 157.313781,44.0421653 159.921866,40.4011027 C161.247104,44.1881774 164.045035,46.8699956 168.676919,46.8699956 C179.131375,46.8699956 183.730082,33.6383372 184.585313,26.0993046 C186.108781,25.5918278 187.599124,24.9893541 189.047626,24.2954076 C188.043098,29.522273 187.268967,35.2795877 187.268967,38.6082952 C187.268967,43.4802957 189.698264,46.7646451 193.395662,46.7646451 C198.842227,46.7646451 202.576488,41.6191028 204.823311,37.338544 C204.808565,42.9775703 206.965073,46.8718439 212.090927,46.8718439 C223.183119,46.8718439 231,24.3101936 231,17.1056951 C230.996314,9.25430737 221.596151,9.570359 220.643232,15.6086085 Z M121.132369,18.9983084 C125.572564,18.9983084 122.299096,30.5055448 114.533824,31.2522398 C115.518076,25.2435624 118.28283,18.9983084 121.132369,18.9983084 L121.132369,18.9983084 Z" id="Shape" fill-rule="nonzero"></path>
                <path d="M76.3825256,12 C82.9089791,12 84.3466514,1 77.4902087,1 C71.0737515,1 69.7480054,12 76.3825256,12 Z" id="Path"></path>
                <path d="M28.2720713,1.66648069 C30.2841086,2.82788111 33.2476603,6.94808736 32.0836718,15.8245048 C30.1769477,29.982529 22.5537467,41.6039072 20.011448,41.6039072 C18.5333673,41.6039072 18.6349854,39.3917159 20.5417094,31.1439294 C23.0821605,20.3668709 26.5778213,5.04744635 12.8113476,5.04744635 C-1.80132737,5.04744635 -3.60273818,20.6839517 5.82187363,22.5864362 C4.44541102,15.2954224 8.78727296,8.42841202 12.9166608,8.42841202 C17.363836,8.42841202 15.4589595,16.9859053 13.6557011,26.1794035 C11.5383506,36.8495394 9.1032127,49 17.5744625,49 C29.3288989,49 38.1179361,27.3408039 39.7068728,15.8171309 C41.7244529,1.24247736 32.8282549,-2.66572723 28.2720713,1.66648069 Z" id="Path"></path>
            </g>
        </g>
    </g>
</svg>